<svg width="58" height="40" viewBox="0 0 58 40" fill="none" xmlns="http://www.w3.org/2000/svg">
<path d="M19 2L2 20L19 38" stroke="black" stroke-width="3" stroke-linecap="round" stroke-linejoin="round"/>
<path d="M39 2L56 20L39 38" stroke="black" stroke-width="3" stroke-linecap="round" stroke-linejoin="round"/>
<path d="M21.642 31V9.18182H29.0142C30.7188 9.18182 32.1179 9.47301 33.2116 10.0554C34.3054 10.6307 35.1151 11.4226 35.6406 12.4311C36.1662 13.4396 36.429 14.5866 36.429 15.8722C36.429 17.1577 36.1662 18.2976 35.6406 19.2919C35.1151 20.2862 34.3089 21.0675 33.2223 21.6357C32.1357 22.1967 30.7472 22.4773 29.0568 22.4773H23.0909V20.0909H28.9716C30.1364 20.0909 31.0739 19.9205 31.7841 19.5795C32.5014 19.2386 33.0199 18.7557 33.3395 18.1307C33.6662 17.4986 33.8295 16.7457 33.8295 15.8722C33.8295 14.9986 33.6662 14.2351 33.3395 13.5817C33.0128 12.9283 32.4908 12.424 31.7734 12.0689C31.0561 11.7067 30.108 11.5256 28.929 11.5256H24.2841V31H21.642ZM31.9119 21.1989L37.2812 31H34.2131L28.929 21.1989H31.9119Z" fill="url(#paint0_linear_72_945)"/>
<defs>
<linearGradient id="paint0_linear_72_945" x1="29" y1="9" x2="29" y2="31" gradientUnits="userSpaceOnUse">
<stop stop-color="#666CA4"/>
<stop offset="1" stop-color="#23C1D7"/>
</linearGradient>
</defs>
</svg>
